<?xml version="1.0" encoding="utf-8"?>
<svg xmlns="http://www.w3.org/2000/svg" width="530" height="530" class="segno"><title>QR code articolo PC Genzano</title><desc>QR per https://www.protezionecivilegenzano.it/standard-iso/iso-22324/</desc><g transform="scale(10)"><path fill="#fff" d="M0 0h53v53h-53z"/><path class="qrline" stroke="#036" d="M4 4.5h7m1 0h1m1 0h5m5 0h4m1 0h1m1 0h2m1 0h3m3 0h1m1 0h7m-45 1h1m5 0h1m1 0h1m1 0h1m3 0h1m1 0h1m1 0h1m1 0h7m4 0h1m1 0h1m1 0h1m2 0h1m5 0h1m-45 1h1m1 0h3m1 0h1m1 0h3m1 0h1m1 0h1m4 0h1m2 0h1m1 0h3m6 0h1m1 0h1m2 0h1m1 0h3m1 0h1m-45 1h1m1 0h3m1 0h1m2 0h1m1 0h1m1 0h3m2 0h1m1 0h1m3 0h1m3 0h3m2 0h1m1 0h2m1 0h1m1 0h3m1 0h1m-45 1h1m1 0h3m1 0h1m2 0h1m1 0h1m1 0h2m4 0h14m1 0h3m1 0h1m1 0h3m1 0h1m-45 1h1m5 0h1m1 0h1m1 0h4m1 0h1m1 0h2m1 0h1m3 0h1m2 0h1m1 0h1m1 0h2m5 0h1m5 0h1m-45 1h7m1 0h1m1 0h1m1 0h1m1 0h1m1 0h1m1 0h1m1 0h1m1 0h1m1 0h1m1 0h1m1 0h1m1 0h1m1 0h1m1 0h1m1 0h1m1 0h7m-37 1h1m1 0h2m1 0h2m5 0h1m3 0h2m2 0h1m2 0h2m1 0h1m1 0h1m-35 1h3m1 0h1m1 0h1m2 0h4m3 0h1m1 0h5m2 0h1m1 0h3m2 0h2m1 0h3m2 0h3m-45 1h2m1 0h2m3 0h3m1 0h1m1 0h2m2 0h1m1 0h1m2 0h1m1 0h1m1 0h5m1 0h1m1 0h2m3 0h2m1 0h2m-45 1h3m2 0h2m2 0h1m1 0h1m2 0h1m3 0h4m1 0h2m1 0h4m2 0h5m1 0h1m1 0h2m1 0h1m-41 1h1m1 0h1m1 0h1m1 0h3m4 0h1m3 0h1m1 0h2m4 0h1m1 0h1m1 0h1m1 0h1m1 0h1m2 0h6m-45 1h2m1 0h2m1 0h1m1 0h1m1 0h1m1 0h7m2 0h2m1 0h1m2 0h1m1 0h1m1 0h1m2 0h1m8 0h2m-45 1h5m2 0h2m2 0h1m1 0h1m1 0h3m2 0h2m1 0h1m1 0h1m3 0h2m1 0h1m2 0h3m6 0h1m-44 1h1m2 0h7m6 0h4m1 0h2m1 0h2m1 0h1m2 0h4m2 0h3m2 0h2m-43 1h2m1 0h1m2 0h3m1 0h2m1 0h2m1 0h1m2 0h1m2 0h6m1 0h1m1 0h2m3 0h1m1 0h5m-44 1h3m2 0h3m6 0h1m3 0h5m7 0h2m5 0h1m3 0h1m2 0h1m-44 1h1m2 0h1m3 0h2m3 0h4m3 0h2m3 0h1m2 0h1m1 0h3m2 0h3m2 0h1m1 0h3m-45 1h1m1 0h2m1 0h2m1 0h3m3 0h2m1 0h2m4 0h3m4 0h1m2 0h6m4 0h1m-43 1h2m4 0h1m2 0h1m1 0h1m2 0h1m3 0h1m2 0h1m1 0h1m2 0h3m1 0h3m3 0h1m1 0h4m-42 1h1m2 0h6m1 0h4m1 0h1m2 0h6m3 0h1m2 0h1m1 0h2m1 0h5m-41 1h1m1 0h3m3 0h1m2 0h3m2 0h3m1 0h1m3 0h2m3 0h1m1 0h2m2 0h2m3 0h2m2 0h1m-45 1h1m1 0h1m1 0h1m1 0h1m1 0h1m1 0h2m2 0h1m1 0h1m1 0h1m1 0h1m1 0h1m1 0h1m1 0h1m1 0h1m1 0h2m1 0h2m1 0h1m1 0h1m1 0h1m1 0h2m-40 1h1m3 0h1m1 0h3m1 0h1m2 0h4m3 0h1m3 0h1m3 0h2m2 0h1m3 0h3m1 0h1m-45 1h2m2 0h5m2 0h2m1 0h1m5 0h5m1 0h5m3 0h1m1 0h5m2 0h2m-43 1h2m3 0h1m2 0h1m1 0h2m1 0h1m2 0h1m1 0h1m1 0h2m2 0h1m1 0h2m3 0h1m1 0h3m4 0h1m1 0h1m-45 1h1m2 0h1m2 0h4m2 0h1m1 0h1m3 0h3m1 0h1m2 0h1m5 0h1m2 0h2m1 0h1m1 0h1m1 0h1m-42 1h6m1 0h3m2 0h5m1 0h1m2 0h3m1 0h6m1 0h1m1 0h3m1 0h1m2 0h4m-43 1h5m2 0h1m1 0h1m1 0h3m2 0h1m2 0h1m1 0h2m1 0h1m1 0h2m1 0h1m2 0h1m1 0h3m1 0h2m1 0h2m-45 1h1m2 0h3m2 0h5m2 0h2m3 0h1m1 0h1m1 0h2m1 0h2m1 0h2m3 0h2m1 0h1m5 0h1m-45 1h2m2 0h1m1 0h2m4 0h3m1 0h2m4 0h2m2 0h7m1 0h1m1 0h2m1 0h1m1 0h2m-41 1h1m1 0h1m3 0h1m1 0h2m2 0h1m1 0h3m1 0h2m3 0h1m1 0h1m4 0h1m1 0h2m2 0h1m2 0h2m-43 1h1m2 0h4m1 0h1m3 0h1m1 0h1m4 0h1m1 0h10m2 0h2m1 0h6m1 0h1m-41 1h1m5 0h1m1 0h4m1 0h2m3 0h3m2 0h4m1 0h2m4 0h1m3 0h2m1 0h1m-41 1h1m1 0h1m1 0h3m1 0h2m2 0h1m1 0h1m1 0h1m1 0h1m3 0h2m3 0h4m5 0h1m1 0h2m-43 1h4m4 0h1m1 0h2m1 0h4m3 0h1m3 0h3m1 0h2m1 0h1m1 0h2m1 0h3m1 0h2m1 0h1m-45 1h1m2 0h2m1 0h1m2 0h1m1 0h1m1 0h3m2 0h1m1 0h7m1 0h2m1 0h1m1 0h2m1 0h6m1 0h1m-36 1h1m1 0h1m1 0h3m2 0h1m1 0h2m3 0h1m2 0h1m1 0h3m4 0h1m3 0h2m1 0h2m-45 1h7m2 0h2m1 0h1m1 0h4m1 0h2m1 0h1m1 0h1m2 0h1m3 0h1m1 0h4m1 0h1m1 0h2m1 0h1m-44 1h1m5 0h1m2 0h2m1 0h2m4 0h1m1 0h1m3 0h2m1 0h2m1 0h3m2 0h2m3 0h3m1 0h1m-45 1h1m1 0h3m1 0h1m1 0h2m1 0h1m2 0h2m1 0h8m2 0h1m1 0h1m1 0h1m1 0h1m1 0h7m1 0h2m-45 1h1m1 0h3m1 0h1m1 0h1m4 0h1m1 0h1m3 0h1m1 0h2m1 0h1m1 0h1m1 0h1m1 0h4m5 0h6m-45 1h1m1 0h3m1 0h1m1 0h5m1 0h1m1 0h3m1 0h1m4 0h1m2 0h1m2 0h1m1 0h6m2 0h2m-43 1h1m5 0h1m2 0h1m2 0h4m1 0h1m3 0h1m2 0h2m5 0h3m5 0h1m1 0h2m-43 1h7m2 0h1m2 0h4m1 0h2m2 0h1m1 0h5m1 0h2m2 0h2m2 0h2m4 0h1"/></g></svg>
