<?xml version="1.0" encoding="utf-8"?>
<svg xmlns="http://www.w3.org/2000/svg" width="610" height="610" class="segno"><title>QR code articolo PC Genzano</title><desc>QR per https://www.protezionecivilegenzano.it/formazione/rischio-incendio/procedure-emergenza/</desc><g transform="scale(10)"><path fill="#fff" d="M0 0h61v61h-61z"/><path class="qrline" stroke="#036" d="M4 4.5h7m1 0h4m1 0h1m1 0h1m1 0h1m1 0h1m2 0h1m4 0h1m2 0h2m1 0h2m2 0h1m1 0h2m1 0h1m3 0h7m-53 1h1m5 0h1m1 0h2m1 0h1m3 0h5m4 0h4m2 0h2m1 0h4m1 0h6m2 0h1m5 0h1m-53 1h1m1 0h3m1 0h1m1 0h2m2 0h1m1 0h1m2 0h2m1 0h1m1 0h1m4 0h1m2 0h7m2 0h2m2 0h1m2 0h1m1 0h3m1 0h1m-53 1h1m1 0h3m1 0h1m2 0h1m1 0h5m2 0h2m1 0h2m1 0h1m2 0h3m3 0h1m2 0h2m3 0h2m1 0h1m1 0h1m1 0h3m1 0h1m-53 1h1m1 0h3m1 0h1m2 0h1m5 0h3m1 0h2m1 0h1m1 0h5m1 0h1m1 0h1m1 0h4m2 0h3m3 0h1m1 0h3m1 0h1m-53 1h1m5 0h1m1 0h1m2 0h1m1 0h1m4 0h4m1 0h2m3 0h2m4 0h1m1 0h3m1 0h3m3 0h1m5 0h1m-53 1h7m1 0h1m1 0h1m1 0h1m1 0h1m1 0h1m1 0h1m1 0h1m1 0h1m1 0h1m1 0h1m1 0h1m1 0h1m1 0h1m1 0h1m1 0h1m1 0h1m1 0h1m1 0h1m1 0h1m1 0h7m-45 1h3m4 0h1m1 0h3m1 0h4m3 0h1m5 0h1m3 0h1m1 0h4m-42 1h3m1 0h1m1 0h1m1 0h3m1 0h1m1 0h3m1 0h1m1 0h7m1 0h1m3 0h4m3 0h1m1 0h5m2 0h3m-52 1h2m1 0h2m1 0h1m2 0h2m7 0h3m3 0h1m1 0h1m3 0h1m1 0h1m3 0h1m2 0h3m2 0h1m1 0h4m1 0h1m-53 1h2m2 0h1m1 0h3m1 0h5m2 0h1m1 0h1m1 0h4m1 0h4m1 0h1m2 0h1m3 0h1m1 0h1m2 0h6m1 0h1m-51 1h1m2 0h2m2 0h4m1 0h1m3 0h2m1 0h1m3 0h2m1 0h1m1 0h1m3 0h3m6 0h1m4 0h1m2 0h1m-50 1h1m1 0h3m1 0h1m2 0h2m2 0h1m3 0h4m3 0h3m1 0h4m1 0h1m1 0h2m1 0h2m1 0h1m3 0h4m1 0h3m-53 1h1m3 0h1m3 0h1m1 0h5m1 0h1m1 0h1m1 0h2m5 0h3m1 0h1m3 0h3m3 0h4m1 0h1m2 0h2m1 0h1m-53 1h1m2 0h1m2 0h3m6 0h3m2 0h1m3 0h1m1 0h1m1 0h2m1 0h1m1 0h1m1 0h2m1 0h2m1 0h1m2 0h2m1 0h1m2 0h1m-50 1h1m1 0h2m2 0h1m1 0h2m2 0h1m3 0h2m1 0h1m2 0h1m1 0h1m1 0h1m3 0h2m1 0h1m2 0h1m1 0h2m1 0h3m2 0h1m1 0h1m1 0h2m-53 1h5m1 0h1m2 0h1m1 0h2m1 0h2m1 0h1m4 0h4m1 0h1m1 0h5m1 0h4m2 0h1m2 0h2m1 0h2m1 0h1m1 0h1m-53 1h1m1 0h1m1 0h2m3 0h1m2 0h2m2 0h4m1 0h1m2 0h1m1 0h1m2 0h1m3 0h5m1 0h5m3 0h1m3 0h2m-51 1h1m3 0h1m5 0h2m4 0h7m2 0h1m1 0h2m1 0h1m5 0h2m3 0h1m2 0h2m1 0h2m-51 1h2m1 0h1m1 0h1m1 0h1m2 0h1m1 0h4m2 0h1m2 0h1m1 0h1m2 0h3m1 0h1m1 0h3m1 0h3m1 0h2m1 0h1m2 0h1m2 0h1m2 0h1m-52 1h1m4 0h1m2 0h1m2 0h1m4 0h1m4 0h1m8 0h3m1 0h1m2 0h1m2 0h1m2 0h1m1 0h1m1 0h1m1 0h1m-51 1h1m1 0h1m1 0h2m1 0h1m1 0h1m1 0h2m3 0h2m4 0h1m2 0h2m2 0h2m3 0h1m2 0h3m2 0h2m4 0h2m1 0h2m-51 1h1m2 0h3m4 0h1m4 0h1m1 0h5m2 0h5m1 0h4m3 0h1m3 0h1m2 0h4m1 0h1m-49 1h1m1 0h1m1 0h1m4 0h3m1 0h7m3 0h2m2 0h4m1 0h1m1 0h1m1 0h3m2 0h1m1 0h1m2 0h1m-50 1h1m1 0h1m1 0h6m2 0h1m2 0h1m1 0h1m2 0h3m1 0h5m1 0h1m1 0h2m1 0h4m2 0h11m-52 1h5m3 0h2m1 0h4m2 0h4m2 0h2m3 0h1m3 0h2m3 0h1m1 0h1m1 0h4m3 0h3m1 0h1m-52 1h2m1 0h1m1 0h1m1 0h1m2 0h1m2 0h3m2 0h1m2 0h1m1 0h1m1 0h1m1 0h2m2 0h2m1 0h1m1 0h4m2 0h2m1 0h1m1 0h3m-49 1h1m1 0h1m3 0h2m1 0h3m2 0h1m2 0h2m2 0h2m3 0h5m4 0h4m1 0h1m1 0h1m3 0h1m2 0h1m-52 1h1m2 0h6m4 0h1m5 0h1m1 0h2m1 0h5m4 0h1m1 0h2m1 0h1m2 0h8m-48 1h1m1 0h2m4 0h1m1 0h1m1 0h4m1 0h1m2 0h1m5 0h2m2 0h2m2 0h1m1 0h1m4 0h1m2 0h1m1 0h2m1 0h3m-53 1h3m3 0h3m4 0h1m1 0h1m2 0h7m3 0h2m4 0h1m1 0h1m1 0h1m1 0h4m3 0h2m-48 1h1m1 0h1m1 0h1m1 0h4m1 0h4m4 0h1m3 0h1m3 0h1m5 0h1m5 0h1m2 0h4m2 0h1m1 0h2m-53 1h3m1 0h5m1 0h2m1 0h1m2 0h1m1 0h4m1 0h1m2 0h1m1 0h1m1 0h1m2 0h5m8 0h1m2 0h2m1 0h1m-50 1h1m1 0h1m2 0h3m3 0h2m1 0h1m2 0h1m4 0h2m4 0h7m1 0h2m1 0h3m1 0h3m2 0h2m-50 1h1m1 0h3m3 0h1m1 0h1m1 0h1m1 0h7m4 0h1m1 0h1m1 0h1m1 0h2m2 0h1m1 0h1m-39 1h1m2 0h1m3 0h1m1 0h3m2 0h5m3 0h1m1 0h1m1 0h4m1 0h2m3 0h3m2 0h4m1 0h2m2 0h1m-52 1h1m3 0h3m2 0h5m3 0h2m1 0h4m3 0h1m1 0h2m2 0h3m1 0h1m5 0h2m1 0h1m1 0h2m1 0h1m-53 1h1m1 0h3m3 0h4m1 0h3m1 0h1m1 0h1m1 0h4m3 0h1m1 0h3m1 0h4m3 0h2m1 0h6m1 0h2m-52 1h4m1 0h2m1 0h2m2 0h2m1 0h1m1 0h2m2 0h1m1 0h1m1 0h3m1 0h1m1 0h2m4 0h3m7 0h1m1 0h2m-52 1h3m10 0h3m4 0h2m1 0h1m1 0h3m1 0h1m1 0h4m2 0h13m2 0h1m-53 1h3m2 0h5m1 0h1m1 0h1m1 0h1m2 0h1m1 0h1m2 0h4m1 0h5m1 0h6m1 0h2m5 0h1m1 0h1m1 0h1m-52 1h3m6 0h1m3 0h1m1 0h1m2 0h2m1 0h1m1 0h1m1 0h1m1 0h1m1 0h1m1 0h1m7 0h3m1 0h2m2 0h1m1 0h3m-53 1h2m1 0h5m1 0h2m1 0h1m1 0h4m1 0h3m1 0h6m1 0h2m1 0h3m2 0h1m1 0h1m3 0h1m3 0h2m-49 1h2m4 0h4m2 0h2m1 0h1m2 0h4m1 0h1m2 0h1m3 0h2m4 0h3m2 0h5m1 0h2m2 0h1m-50 1h1m2 0h1m2 0h1m3 0h1m2 0h1m3 0h1m1 0h1m1 0h5m4 0h1m1 0h4m1 0h1m3 0h8m-44 1h1m1 0h2m2 0h6m4 0h1m3 0h2m3 0h1m1 0h3m1 0h4m1 0h1m3 0h2m1 0h2m-53 1h7m2 0h3m1 0h3m4 0h3m1 0h1m1 0h1m1 0h2m1 0h3m1 0h2m1 0h1m1 0h1m3 0h1m1 0h1m1 0h2m1 0h1m-52 1h1m5 0h1m8 0h1m1 0h1m5 0h2m3 0h2m1 0h5m1 0h1m2 0h1m1 0h1m1 0h1m3 0h1m3 0h1m-53 1h1m1 0h3m1 0h1m1 0h2m3 0h1m1 0h1m4 0h1m2 0h6m1 0h2m2 0h4m3 0h1m2 0h5m1 0h1m-51 1h1m1 0h3m1 0h1m1 0h1m1 0h1m1 0h3m1 0h5m1 0h1m1 0h1m1 0h1m1 0h1m2 0h1m2 0h2m1 0h1m3 0h3m2 0h1m2 0h1m-50 1h1m1 0h3m1 0h1m1 0h1m1 0h2m4 0h1m2 0h1m1 0h1m1 0h2m1 0h4m1 0h1m1 0h4m1 0h1m8 0h3m-50 1h1m5 0h1m2 0h4m3 0h1m1 0h5m3 0h2m2 0h7m3 0h2m1 0h1m5 0h1m1 0h1m-52 1h7m2 0h1m1 0h1m1 0h3m4 0h2m1 0h2m2 0h1m1 0h1m1 0h1m2 0h1m1 0h2m3 0h1m3 0h2m1 0h1m1 0h1"/></g></svg>
