<svg xmlns="http://www.w3.org/2000/svg" viewBox="0 0 100 100" role="img" aria-label="Punto di raccolta in caso di evacuazione">
  <title>ISO 7010 E007 — Punto di raccolta evacuazione</title>
  <rect x="4" y="4" width="92" height="92" rx="4" fill="#009E60"/>
  <circle cx="50" cy="50" r="6" fill="#FFFFFF"/>
  <circle cx="30" cy="30" r="5" fill="#FFFFFF"/>
  <path d="M30 36 L30 50 L26 60 L30 60 L30 70 L34 70 L34 60 L38 60 L34 50 L34 36 Z" fill="#FFFFFF"/>
  <path d="M27 38 L20 50 L23 51 L29 42 Z" fill="#FFFFFF"/>
  <circle cx="70" cy="30" r="5" fill="#FFFFFF"/>
  <path d="M70 36 L70 50 L66 60 L70 60 L70 70 L74 70 L74 60 L78 60 L74 50 L74 36 Z" fill="#FFFFFF"/>
  <path d="M77 38 L84 50 L81 51 L75 42 Z" fill="#FFFFFF"/>
  <path d="M44 60 L40 78 L60 78 L56 60 Z" fill="#FFFFFF"/>
  <path d="M50 56 L50 50 L46 50 L46 56 Z" fill="#FFFFFF"/>
</svg>
