<svg xmlns="http://www.w3.org/2000/svg" viewBox="0 0 100 100" role="img" aria-label="Pericolo biologico">
  <title>ISO 7010 W009 — Rischio biologico</title>
  <path d="M50 8 L92 84 L8 84 Z" fill="#FFCC00" stroke="#000000" stroke-width="4" stroke-linejoin="round"/>
  <circle cx="50" cy="60" r="6" fill="#000000"/>
  <circle cx="50" cy="60" r="2" fill="#FFCC00"/>
  <path d="M50 40 C46 44 42 48 38 50 C34 48 32 44 32 40 C32 36 36 32 42 34 C46 35 49 38 50 40 Z" fill="#000000"/>
  <path d="M50 40 C54 44 58 48 62 50 C66 48 68 44 68 40 C68 36 64 32 58 34 C54 35 51 38 50 40 Z" fill="#000000"/>
  <path d="M50 80 C46 76 42 72 38 70 C34 72 32 76 32 80 C32 84 36 88 42 86 C46 85 49 82 50 80 Z" fill="#000000"/>
</svg>
