<svg xmlns="http://www.w3.org/2000/svg" viewBox="0 0 100 100" role="img" aria-label="Pericolo sostanza tossica">
  <title>ISO 7010 W016 — Sostanza tossica</title>
  <path d="M50 8 L92 84 L8 84 Z" fill="#FFCC00" stroke="#000000" stroke-width="4" stroke-linejoin="round"/>
  <path d="M50 36 C42 36 36 43 36 52 C36 58 39 63 43 67 L43 72 L46 72 L46 76 L54 76 L54 72 L57 72 L57 67 C61 63 64 58 64 52 C64 43 58 36 50 36 Z" fill="#000000"/>
  <circle cx="44" cy="49" r="3" fill="#FFCC00"/>
  <circle cx="56" cy="49" r="3" fill="#FFCC00"/>
  <path d="M44 60 L56 60 L52 64 L48 64 Z" fill="#FFCC00"/>
</svg>
