<svg xmlns="http://www.w3.org/2000/svg" width="1200" height="620" viewBox="0 0 1200 620" role="img" aria-labelledby="tit desc"><title id="tit">Lampo e tuono: la luce arriva prima del suono</title><desc id="desc">Un bambino resta al chiuso, davanti a una finestra chiusa che mostra lo stesso cielo scuro e piovoso dell'esterno. Una freccia gialla rettilinea indica la luce del lampo che arriva subito; una freccia blu ondulata e tratteggiata mostra il tuono che si sente dopo. Nove secondi diviso tre corrispondono a circa tre chilometri. Al primo tuono bisogna entrare al chiuso e uscire solo trenta minuti dopo l'ultimo.</desc><defs><linearGradient id="sea" x1="0" y1="0" x2="0" y2="1"><stop stop-color="#C4F4FA"/><stop offset="1" stop-color="#4A9DCC"/></linearGradient><linearGradient id="sky" x1="0" y1="0" x2="0" y2="1"><stop stop-color="#EBF9FD"/><stop offset="1" stop-color="#D8EFFA"/></linearGradient><linearGradient id="storm" x1="0" y1="0" x2="0" y2="1"><stop stop-color="#506C91"/><stop offset="1" stop-color="#A7C7DB"/></linearGradient></defs><rect x="0" y="0" width="1200" height="620" rx="24" fill="#F6FAFD" stroke="none" stroke-width="2"/><rect x="0" y="0" width="1200" height="10" rx="0" fill="#167A99" stroke="none" stroke-width="2"/><rect x="20" y="23" width="544" height="434" rx="20" fill="#F9F4E7" stroke="#E7CC9F" stroke-width="4"/><rect x="581" y="23" width="599" height="434" rx="20" fill="url(#storm)" stroke="#6286A2" stroke-width="4"/><rect x="70" y="54" width="431" height="333" rx="10" fill="#F8F3E7" stroke="#A7B2B2" stroke-width="6"/><rect x="103" y="83" width="364" height="239" rx="3" fill="url(#storm)" stroke="#517891" stroke-width="10"/><path d="M287 85 V321 M103 200 H467" fill="none" stroke="#517891" stroke-width="8" stroke-linecap="round" stroke-linejoin="round"/><path d="M337 147 Q326 130 340 116 Q351 103 371 109 Q389 84 414 100 Q440 96 450 118 Q462 141 436 150Z" fill="#627A98" stroke="#334E69" stroke-width="4"/><path d="M354 170 l-10 20 M394 170 l-10 20 M433 171 l-10 20 M353 219 l-10 20 M409 225 l-10 20" fill="none" stroke="#E8F6FF" stroke-width="5" stroke-linecap="round"/><path d="M342 104 Q380 96 401 104" fill="none" stroke="#B4C6D6" stroke-width="4" stroke-linecap="round"/><path d="M85 395 H502" fill="none" stroke="#C9AF86" stroke-width="10" stroke-linecap="round" stroke-linejoin="round"/><circle cx="228" cy="231" r="48" fill="#F0BD98" stroke="#A87053" stroke-width="4"/><path d="M180 219 Q179 165 224 174 Q256 170 272 208 L270 222 Q234 193 185 228Z" fill="#5C514E" stroke="none" stroke-width="3" stroke-linecap="round" stroke-linejoin="round"/><path d="M164 309 Q213 272 274 299 L311 424 H130Z" fill="#5E9CB7" stroke="#3D6E87" stroke-width="6" stroke-linecap="round" stroke-linejoin="round"/><path d="M255 343 Q289 317 318 287" fill="none" stroke="#EBB994" stroke-width="17" stroke-linecap="round" stroke-linejoin="round"/><path d="M319 290 L324 244 M320 289 L347 256 M318 289 L364 271" fill="none" stroke="#E7AB88" stroke-width="10" stroke-linecap="round" stroke-linejoin="round"/><path d="M201 237 Q214 244 227 239 M242 237 Q251 234 258 239" fill="none" stroke="#74524A" stroke-width="3" stroke-linecap="round" stroke-linejoin="round"/><path d="M220 262 Q237 275 249 258" fill="none" stroke="#995E55" stroke-width="3" stroke-linecap="round" stroke-linejoin="round"/><path d="M658 166 Q624 134 657 103 Q681 78 714 95 Q734 60 779 70 Q829 33 864 77 Q928 64 948 112 Q1000 106 1011 146 Q1020 180 958 183Z" fill="#738AA6" stroke="#47677F" stroke-width="6" stroke-linecap="round" stroke-linejoin="round"/><path d="M706 159 L659 256 H695 L652 356 L758 223 H712 L739 159Z" fill="#FFE181" stroke="#DFA53A" stroke-width="6" stroke-linecap="round" stroke-linejoin="round"/><path d="M624 198 l-10 22 M792 262 l-10 22 M1150 196 l-10 22 M1160 262 l-10 22 M748 372 l-10 22 M1100 362 l-10 22" fill="none" stroke="#DCEFF9" stroke-width="5" stroke-linecap="round"/><rect x="780" y="202" width="351" height="50" rx="13" fill="#FFFFFF" stroke="#D4DFE8" stroke-width="3"/><text x="955" y="236" font-family="Arial,Helvetica,sans-serif" font-size="27" font-weight="700" fill="#173C57" text-anchor="middle">Lampo: lo vedi subito</text><path d="M685 274 L376 274" fill="none" stroke="#254960" stroke-opacity=".38" stroke-width="15" stroke-linecap="round"/><path d="M685 274 L376 274" fill="none" stroke="#FFE171" stroke-width="9" stroke-linecap="round"/><path d="M380 274 L408 258 L408 290Z" fill="#FFE171" stroke="#254960" stroke-width="2"/><rect x="776" y="296" width="359" height="50" rx="13" fill="#FFFFFF" stroke="#D4DFE8" stroke-width="3"/><text x="955" y="330" font-family="Arial,Helvetica,sans-serif" font-size="27" font-weight="700" fill="#173C57" text-anchor="middle">Tuono: lo senti dopo</text><path d="M1050 372 Q995 337 938 373 T826 373 T714 373 T602 373 T490 373 L379 373" fill="none" stroke="#16364D" stroke-opacity=".32" stroke-width="13" stroke-linecap="round"/><path d="M1050 372 Q995 337 938 373 T826 373 T714 373 T602 373 T490 373 L379 373" fill="none" stroke="#D7F5FF" stroke-width="7" stroke-dasharray="21 15" stroke-linecap="round"/><path d="M379 373 L405 358 L405 388Z" fill="#D7F5FF" stroke="#16364D" stroke-width="2"/><rect x="610" y="399" width="545" height="58" rx="15" fill="#FFFFFF" stroke="#9AB7C5" stroke-width="3"/><text x="883" y="438" font-family="Arial,Helvetica,sans-serif" font-size="29" font-weight="700" fill="#173C57" text-anchor="middle">9 secondi : 3 = circa 3 km</text><rect x="30" y="477" width="1140" height="120" rx="18" fill="#FFF1DB" stroke="#E2AC6A" stroke-width="4"/><circle cx="99" cy="536" r="33" fill="#AF473D" stroke="none" stroke-width="2"/><text x="99" y="548" font-family="Arial,Helvetica,sans-serif" font-size="33" font-weight="700" fill="#FFFFFF" text-anchor="middle">!</text><text x="154" y="529" font-family="Arial,Helvetica,sans-serif" font-size="28" font-weight="700" fill="#173C57" text-anchor="start">Al primo tuono entra al chiuso.</text><text x="154" y="566" font-family="Arial,Helvetica,sans-serif" font-size="27" font-weight="700" fill="#173C57" text-anchor="start">Esci 30 minuti dopo l’ultimo tuono</text></svg>