<svg xmlns="http://www.w3.org/2000/svg" width="1200" height="620" viewBox="0 0 1200 620" role="img" aria-labelledby="t d"><title id="t">Incendi boschivi: avvista e segnala</title><desc id="d">Una scena raffigura fumo che si leva da un bosco lontano, l'altra una persona che telefona al 112 da una posizione sicura. Non avvicinarsi alle fiamme.</desc><defs><linearGradient id="paper" x2=".7" y2="1"><stop stop-color="#f7fbfd"/><stop offset="1" stop-color="#eaf3f7"/></linearGradient><linearGradient id="flame" x2="0" y2="1"><stop stop-color="#cf4930"/><stop offset=".6" stop-color="#ed8b37"/><stop offset="1" stop-color="#ffd87a"/></linearGradient></defs><rect width="1200" height="620" rx="20" fill="url(#paper)"/><rect width="1200" height="12" fill="#0f6282"/><text x="42" y="67" font-family="Arial,sans-serif" font-size="32" fill="#123a59" text-anchor="start" font-weight="700">Incendi boschivi: avvista e segnala</text>
<rect x="30" y="103" width="687" height="467" rx="19" fill="#e7f2f5" stroke="#b4ceda" stroke-width="3"/><rect x="736" y="103" width="435" height="467" rx="19" fill="#eef8f9" stroke="#aacdd2" stroke-width="3"/>
<text x="373" y="152" font-family="Arial,sans-serif" font-size="24" fill="#154d67" text-anchor="middle" font-weight="700">ALLONTANATI DA FUMO E FIAMME</text>
<path d="M45 454 Q220 284 370 388 T701 420 V546 H45Z" fill="#c3d4c4"/><path d="M46 492 Q222 388 386 460 T701 467 V543 H46Z" fill="#8cae95"/><path d="M90 447 V520 M90 280 l-55 146 h110Z" stroke="#386a50" stroke-width="13" stroke-linejoin="round" fill="#60946f"/><path d="M197 447 V520 M197 280 l-55 146 h110Z" stroke="#386a50" stroke-width="13" stroke-linejoin="round" fill="#60946f"/><path d="M304 447 V520 M304 280 l-55 146 h110Z" stroke="#386a50" stroke-width="13" stroke-linejoin="round" fill="#60946f"/><path d="M411 447 V520 M411 280 l-55 146 h110Z" stroke="#386a50" stroke-width="13" stroke-linejoin="round" fill="#60946f"/><path d="M518 447 V520 M518 280 l-55 146 h110Z" stroke="#386a50" stroke-width="13" stroke-linejoin="round" fill="#60946f"/>
<path d="M284 381 C248 325 279 301 269 268 C243 238 280 208 271 172 C326 204 351 236 329 276 C372 303 345 346 365 379Z" fill="#819198" opacity=".68"/>
<path d="M271 454 Q252 420 272 392 Q277 416 291 403 Q306 382 299 374 Q346 414 328 451 Q349 422 343 407 Q380 466 330 471Z" fill="#e68139" stroke="#a84b2d" stroke-width="5"/>
<path d="M60 546 H684" stroke="#6d866a" stroke-width="7"/>
<text x="957" y="165" font-family="Arial,sans-serif" font-size="24" fill="#13556f" text-anchor="middle" font-weight="700">Da un luogo sicuro</text>
<g transform="translate(0,-58)"><circle cx="850" cy="355" r="28" fill="#e9c0a1" stroke="#a9795f" stroke-width="3"/><path d="M829 385 Q849 380 870 388 L877 476 H820Z" fill="#327e9c" stroke="#285a71" stroke-width="5"/><path d="M824 410 L792 436 M870 409 L885 376" stroke="#e9c0a1" stroke-width="14" fill="none" stroke-linecap="round"/><path d="M833 477 L827 531 M861 477 L872 531" stroke="#425567" stroke-width="16" stroke-linecap="round"/><rect x="867" y="354" width="22" height="43" rx="5" fill="#354e63"/><rect x="873" y="360" width="10" height="26" fill="#c0e1eb"/>
</g><rect x="932" y="219" width="201" height="103" rx="15" fill="#fff" stroke="#138577" stroke-width="5"/><text x="1032" y="263" font-family="Arial,sans-serif" font-size="49" fill="#087a70" text-anchor="middle" font-weight="700">112</text><text x="1032" y="289" font-family="Arial,sans-serif" font-size="16" fill="#087a70" text-anchor="middle" font-weight="700">EMERGENZA</text>
<path d="M893 313 L930 290" stroke="#198a79" stroke-width="5" stroke-dasharray="10 8"/><rect x="772" y="478" width="365" height="58" rx="12" fill="#dceef3"/><text x="955" y="502" font-family="Arial,sans-serif" font-size="19" fill="#20556d" text-anchor="middle" font-weight="700">Comunica posizione e località.</text><text x="955" y="525" font-family="Arial,sans-serif" font-size="18" fill="#20556d" text-anchor="middle" font-weight="500">Segui le istruzioni.</text>
<text x="601" y="600" font-family="Arial,sans-serif" font-size="21" fill="#805138" text-anchor="middle" font-weight="700">Non avvicinarti e non ostacolare le vie di soccorso.</text></svg>