<svg xmlns="http://www.w3.org/2000/svg" width="720" height="1180" viewBox="0 0 720 1180" role="img" aria-labelledby="tit desc"><title id="tit">Quattro gesti contro le ondate di calore</title><desc id="desc">Quattro riquadri in ordine: una persona beve acqua; un edificio con tapparelle abbassate nelle ore calde; una persona con cappello e abiti chiari cammina all’ombra; un’auto vuota al sole con simbolo di divieto.</desc><defs><linearGradient id="sea" x1="0" y1="0" x2="0" y2="1"><stop stop-color="#C4F4FA"/><stop offset="1" stop-color="#4A9DCC"/></linearGradient><linearGradient id="sky" x1="0" y1="0" x2="0" y2="1"><stop stop-color="#EBF9FD"/><stop offset="1" stop-color="#D8EFFA"/></linearGradient><linearGradient id="storm" x1="0" y1="0" x2="0" y2="1"><stop stop-color="#506C91"/><stop offset="1" stop-color="#A7C7DB"/></linearGradient></defs><rect x="0" y="0" width="720" height="1180" rx="24" fill="#F6FAFD" stroke="none" stroke-width="2"/><rect x="0" y="0" width="720" height="10" rx="0" fill="#167A99" stroke="none" stroke-width="2"/><rect x="30" y="21" width="660" height="271" rx="21" fill="#F0F8FD" stroke="#BBD3DD" stroke-width="3"/><rect x="47" y="37" width="47" height="47" rx="16" fill="#167A99" stroke="none" stroke-width="2"/><text x="70" y="69" font-family="Arial,Helvetica,sans-serif" font-size="27" font-weight="700" fill="#FFFFFF" text-anchor="middle">1</text><text x="105" y="69" font-family="Arial,Helvetica,sans-serif" font-size="25" font-weight="700" fill="#173C57" text-anchor="start">Bevi spesso</text><g transform="translate(230 76) scale(0.95)">
<path d="M42 189 Q78 171 118 180 Q174 154 244 181 L306 212 H27Z" fill="#C7E5D5" stroke="none" stroke-width="3" stroke-linecap="round" stroke-linejoin="round"/>
<circle cx="163" cy="68" r="40" fill="#F1BF9A" stroke="#A46852" stroke-width="3"/>
<path d="M123 69 Q110 27 143 17 Q183 4 204 39 L194 64 Q187 41 165 41 Q151 51 125 50Z" fill="#594B49" stroke="none" stroke-width="3" stroke-linecap="round" stroke-linejoin="round"/>
<path d="M118 111 Q157 94 196 112 L224 193 Q166 207 103 188Z" fill="#FFF1CD" stroke="#A67F66" stroke-width="4" stroke-linecap="round" stroke-linejoin="round"/>
<path d="M126 144 Q99 168 110 187 L146 209" fill="#F1BF9A" stroke="#A46852" stroke-width="17" stroke-linecap="round" stroke-linejoin="round"/>
<path d="M189 140 Q234 145 245 115 L250 89" fill="none" stroke="#A46852" stroke-width="17" stroke-linecap="round" stroke-linejoin="round"/>
<path d="M245 107 L246 83" fill="none" stroke="#F1BF9A" stroke-width="17" stroke-linecap="round" stroke-linejoin="round"/>
<rect x="228" y="49" width="36" height="47" rx="6" fill="#E8FAFF" stroke="#458DA9" stroke-width="4"/>
<path d="M230 70 H261" fill="none" stroke="#6EBEDF" stroke-width="5" stroke-linecap="round" stroke-linejoin="round"/>
<path d="M262 58 Q278 61 275 74 Q274 86 264 84" fill="none" stroke="#458DA9" stroke-width="4" stroke-linecap="round" stroke-linejoin="round"/>
<path d="M149 66 Q153 63 157 66 M184 66 Q188 63 192 66" fill="none" stroke="#765345" stroke-width="3" stroke-linecap="round" stroke-linejoin="round"/>
<path d="M163 89 Q177 97 187 85" fill="none" stroke="#A56758" stroke-width="3" stroke-linecap="round" stroke-linejoin="round"/>
<circle cx="285" cy="35" r="13" fill="#E9F8FC" stroke="none" stroke-width="2"/><path d="M284 20 Q278 33 284 42 Q290 35 284 20" fill="#50B5E4" stroke="none" stroke-width="3" stroke-linecap="round" stroke-linejoin="round"/></g><rect x="30" y="310" width="660" height="271" rx="21" fill="#F5FBF8" stroke="#BBD3DD" stroke-width="3"/><rect x="47" y="326" width="47" height="47" rx="16" fill="#167A99" stroke="none" stroke-width="2"/><text x="70" y="358" font-family="Arial,Helvetica,sans-serif" font-size="27" font-weight="700" fill="#FFFFFF" text-anchor="middle">2</text><text x="105" y="358" font-family="Arial,Helvetica,sans-serif" font-size="25" font-weight="700" fill="#173C57" text-anchor="start">Casa fresca, esci dopo le 17</text><g transform="translate(230 365) scale(0.95)">
<circle cx="290" cy="42" r="29" fill="#FFD77F" stroke="#E8AB45" stroke-width="4"/><path d="M290 1 V9 M290 74 V83 M249 42 H241 M330 42 H338 M261 13 L254 6 M320 72 L326 78" fill="none" stroke="#E8AB45" stroke-width="4" stroke-linecap="round" stroke-linejoin="round"/>
<path d="M43 104 L161 26 L275 104Z" fill="#A5B9C4" stroke="#507E98" stroke-width="5" stroke-linecap="round" stroke-linejoin="round"/><rect x="66" y="102" width="194" height="123" rx="7" fill="#FFF3D9" stroke="#8B9CA5" stroke-width="4"/>
<rect x="94" y="120" width="61" height="76" rx="3" fill="#6599AD" stroke="#426477" stroke-width="4"/><rect x="170" y="120" width="61" height="76" rx="3" fill="#6599AD" stroke="#426477" stroke-width="4"/>
<path d="M96 128 H153 M172 128 H229" fill="none" stroke="#D0E3E9" stroke-width="3" stroke-linecap="round" stroke-linejoin="round"/><path d="M96 138 H153 M172 138 H229" fill="none" stroke="#D0E3E9" stroke-width="3" stroke-linecap="round" stroke-linejoin="round"/><path d="M96 148 H153 M172 148 H229" fill="none" stroke="#D0E3E9" stroke-width="3" stroke-linecap="round" stroke-linejoin="round"/><path d="M96 158 H153 M172 158 H229" fill="none" stroke="#D0E3E9" stroke-width="3" stroke-linecap="round" stroke-linejoin="round"/><path d="M96 168 H153 M172 168 H229" fill="none" stroke="#D0E3E9" stroke-width="3" stroke-linecap="round" stroke-linejoin="round"/><path d="M96 178 H153 M172 178 H229" fill="none" stroke="#D0E3E9" stroke-width="3" stroke-linecap="round" stroke-linejoin="round"/><path d="M96 188 H153 M172 188 H229" fill="none" stroke="#D0E3E9" stroke-width="3" stroke-linecap="round" stroke-linejoin="round"/>
<rect x="145" y="202" width="44" height="23" rx="2" fill="#BE8868" stroke="#98694D" stroke-width="3"/>
<circle cx="301" cy="145" r="36" fill="#FFFFFF" stroke="#4B7083" stroke-width="4"/><path d="M301 118 V145 L320 153" fill="none" stroke="#2B576B" stroke-width="5" stroke-linecap="round" stroke-linejoin="round"/>
<path d="M301 145 L281 125" fill="none" stroke="#C36E43" stroke-width="7" stroke-linecap="round" stroke-linejoin="round"/>
<path d="M25 222 H311" fill="none" stroke="#95C7A9" stroke-width="8" stroke-linecap="round" stroke-linejoin="round"/></g><rect x="30" y="599" width="660" height="271" rx="21" fill="#F0F8FD" stroke="#BBD3DD" stroke-width="3"/><rect x="47" y="615" width="47" height="47" rx="16" fill="#167A99" stroke="none" stroke-width="2"/><text x="70" y="647" font-family="Arial,Helvetica,sans-serif" font-size="27" font-weight="700" fill="#FFFFFF" text-anchor="middle">3</text><text x="105" y="647" font-family="Arial,Helvetica,sans-serif" font-size="25" font-weight="700" fill="#173C57" text-anchor="start">Abiti chiari, ombra</text><g transform="translate(230 654) scale(0.95)">
<path d="M26 213 Q124 203 220 216 L325 212" fill="none" stroke="#C5D9B6" stroke-width="11" stroke-linecap="round" stroke-linejoin="round"/>
<path d="M72 213 V91" fill="none" stroke="#7B5E4A" stroke-width="17" stroke-linecap="round" stroke-linejoin="round"/><path d="M66 135 L30 109 M73 153 L102 118" fill="none" stroke="#7B5E4A" stroke-width="10" stroke-linecap="round" stroke-linejoin="round"/>
<path d="M33 123 Q8 105 20 72 Q25 34 63 33 Q83 8 114 27 Q158 25 157 68 Q171 95 140 113 Q103 147 72 122 Q42 145 33 123Z" fill="#4B9874" stroke="#246E55" stroke-width="5" stroke-linecap="round" stroke-linejoin="round"/>
<path d="M75 138 Q136 168 203 194" fill="none" stroke="#ABCAAF" stroke-width="18" stroke-linecap="round" stroke-linejoin="round"/>
<path d="M188 112 Q210 100 228 116 L239 180 L188 184Z" fill="#FBFAE7" stroke="#9A8060" stroke-width="4" stroke-linecap="round" stroke-linejoin="round"/>
<circle cx="209" cy="92" r="23" fill="#EFC09C" stroke="#A66C57" stroke-width="3"/>
<path d="M169 78 Q214 62 251 81 L231 91 H184Z" fill="#F6E7A6" stroke="#A88749" stroke-width="4" stroke-linecap="round" stroke-linejoin="round"/>
<rect x="198" y="55" width="24" height="24" rx="8" fill="#F6E7A6" stroke="#A88749" stroke-width="3"/>
<path d="M201 182 L191 215 M227 180 L247 216" fill="none" stroke="#536A7D" stroke-width="12" stroke-linecap="round" stroke-linejoin="round"/>
<path d="M192 126 L171 153 M238 124 L262 140" fill="none" stroke="#EFC09C" stroke-width="13" stroke-linecap="round" stroke-linejoin="round"/>
<path d="M172 155 L149 164" fill="none" stroke="#A66C57" stroke-width="4" stroke-linecap="round" stroke-linejoin="round"/>
<path d="M154 21 H285 M262 8 L285 21 L262 34" fill="none" stroke="#D5B869" stroke-width="4" stroke-linecap="round" stroke-linejoin="round"/></g><rect x="30" y="888" width="660" height="271" rx="21" fill="#F5FBF8" stroke="#BBD3DD" stroke-width="3"/><rect x="47" y="904" width="47" height="47" rx="16" fill="#B94340" stroke="none" stroke-width="2"/><text x="70" y="936" font-family="Arial,Helvetica,sans-serif" font-size="27" font-weight="700" fill="#FFFFFF" text-anchor="middle">4</text><text x="105" y="936" font-family="Arial,Helvetica,sans-serif" font-size="25" font-weight="700" fill="#173C57" text-anchor="start">Mai nessuno in auto</text><g transform="translate(230 943) scale(0.95)">
<circle cx="267" cy="39" r="28" fill="#FFCE74" stroke="#E0A842" stroke-width="4"/>
<path d="M22 196 H329" fill="none" stroke="#CFD8DF" stroke-width="8" stroke-linecap="round" stroke-linejoin="round"/>
<path d="M54 160 L86 108 Q96 91 118 91 H236 Q256 91 266 110 L295 158 L290 190 H49Z" fill="#4C97B8" stroke="#356982" stroke-width="6" stroke-linecap="round" stroke-linejoin="round"/>
<path d="M103 112 H236 L255 148 H82Z" fill="#D8F0F8" stroke="#477991" stroke-width="4" stroke-linecap="round" stroke-linejoin="round"/>
<path d="M169 114 V150" fill="none" stroke="#6596A4" stroke-width="4" stroke-linecap="round" stroke-linejoin="round"/>
<path d="M105 145 Q116 124 127 143 V149 M200 144 Q214 124 225 145 V149" fill="none" stroke="#B3D4DE" stroke-width="6" stroke-linecap="round" stroke-linejoin="round"/>
<circle cx="103" cy="190" r="22" fill="#304D61" stroke="none" stroke-width="2"/><circle cx="246" cy="190" r="22" fill="#304D61" stroke="none" stroke-width="2"/><circle cx="103" cy="190" r="10" fill="#C4D5D9" stroke="none" stroke-width="2"/><circle cx="246" cy="190" r="10" fill="#C4D5D9" stroke="none" stroke-width="2"/>
<rect x="52" y="162" width="21" height="10" rx="3" fill="#FFF0AE" stroke="none" stroke-width="2"/><rect x="270" y="162" width="20" height="10" rx="3" fill="#F9BD95" stroke="none" stroke-width="2"/>
<circle cx="300" cy="86" r="39" fill="#FFFFFF" stroke="#B94340" stroke-width="8"/><path d="M274 60 L326 112" fill="none" stroke="#B94340" stroke-width="9" stroke-linecap="round" stroke-linejoin="round"/>
<path d="M282 20 L293 4 M310 22 L321 7" fill="none" stroke="#DEA34E" stroke-width="4" stroke-linecap="round" stroke-linejoin="round"/></g></svg>