<svg xmlns="http://www.w3.org/2000/svg" width="1200" height="620" viewBox="0 0 1200 620" role="img" aria-labelledby="t d"><title id="t">Le radici proteggono il suolo superficiale</title><desc id="d">Due pendii schematizzati a confronto. A sinistra vegetazione e radici trattengono parte del terreno, a destra pendio con terreno nudo mostra maggior erosione superficiale quando piove.</desc><defs><linearGradient id="sky" x1="0" y1="0" x2="0" y2="1"><stop stop-color="#eaf7fe"/><stop offset="1" stop-color="#fbfcf9"/></linearGradient><linearGradient id="soil" x1="0" y1="0" x2="0" y2="1"><stop stop-color="#b88c69"/><stop offset="1" stop-color="#e8c8a5"/></linearGradient></defs><rect width="1200" height="620" rx="20" fill="url(#sky)"/><rect width="1200" height="12" fill="#0a6386"/><text x="45" y="65" font-family="Arial,sans-serif" font-size="31" fill="#123f5c" font-weight="700" text-anchor="start">Le radici proteggono il suolo superficiale</text>
<rect x="32" y="103" width="546" height="448" rx="19" fill="#edf7f0" stroke="#a8cbb8" stroke-width="3"/><rect x="621" y="103" width="549" height="448" rx="19" fill="#fff4ed" stroke="#e9c5ae" stroke-width="3"/>
<text x="306" y="158" font-family="Arial,sans-serif" font-size="25" fill="#246747" font-weight="700" text-anchor="middle">CON ERBA E RADICI</text><text x="895" y="158" font-family="Arial,sans-serif" font-size="25" fill="#9c4d2f" font-weight="700" text-anchor="middle">TERRENO NUDO</text>
<path d="M57 383 Q201 303 336 365 T554 379 V530 H57Z" fill="url(#soil)" stroke="#9c765b" stroke-width="6"/><path d="M651 383 Q803 303 937 365 T1147 379 V530 H651Z" fill="url(#soil)" stroke="#9c765b" stroke-width="6"/>
<path d="M57 384 Q195 301 339 362 T554 378" fill="none" stroke="#509a67" stroke-width="16"/><path d="M652 386 Q803 307 938 366 T1147 378" fill="none" stroke="#a67a5b" stroke-width="13"/>
<path d="M137 336 Q136 300 120 290 M145 336 Q155 301 165 293 M160 336 Q180 307 195 299" stroke="#3c9168" stroke-width="7" stroke-linecap="round" fill="none"/><path d="M262 350 Q261 314 245 304 M270 350 Q280 315 290 307 M285 350 Q305 321 320 313" stroke="#3c9168" stroke-width="7" stroke-linecap="round" fill="none"/><path d="M367 370 Q366 334 350 324 M375 370 Q385 335 395 327 M390 370 Q410 341 425 333" stroke="#3c9168" stroke-width="7" stroke-linecap="round" fill="none"/><g stroke="#694f38" stroke-width="5" fill="none" stroke-linecap="round"><path d="M160 336 Q152 378 132 401 L111 425 M143 388 L174 429 M160 336 L180 389 L205 407 M180 386 L153 442"/></g><g stroke="#694f38" stroke-width="5" fill="none" stroke-linecap="round"><path d="M285 350 Q277 392 257 415 L236 439 M268 402 L299 443 M285 350 L305 403 L330 421 M305 400 L278 456"/></g><g stroke="#694f38" stroke-width="5" fill="none" stroke-linecap="round"><path d="M390 370 Q382 412 362 435 L341 459 M373 422 L404 463 M390 370 L410 423 L435 441 M410 420 L383 476"/></g>
<path d="M162 197 l-9 18" stroke="#268cb5" stroke-width="7" stroke-linecap="round"/><path d="M204 197 l-9 18" stroke="#268cb5" stroke-width="7" stroke-linecap="round"/><path d="M246 197 l-9 18" stroke="#268cb5" stroke-width="7" stroke-linecap="round"/><path d="M288 197 l-9 18" stroke="#268cb5" stroke-width="7" stroke-linecap="round"/><path d="M162 241 l-9 18" stroke="#268cb5" stroke-width="7" stroke-linecap="round"/><path d="M204 241 l-9 18" stroke="#268cb5" stroke-width="7" stroke-linecap="round"/><path d="M246 241 l-9 18" stroke="#268cb5" stroke-width="7" stroke-linecap="round"/><path d="M747 197 l-9 18" stroke="#268cb5" stroke-width="7" stroke-linecap="round"/><path d="M789 197 l-9 18" stroke="#268cb5" stroke-width="7" stroke-linecap="round"/><path d="M831 197 l-9 18" stroke="#268cb5" stroke-width="7" stroke-linecap="round"/><path d="M873 197 l-9 18" stroke="#268cb5" stroke-width="7" stroke-linecap="round"/><path d="M747 241 l-9 18" stroke="#268cb5" stroke-width="7" stroke-linecap="round"/><path d="M789 241 l-9 18" stroke="#268cb5" stroke-width="7" stroke-linecap="round"/><path d="M831 241 l-9 18" stroke="#268cb5" stroke-width="7" stroke-linecap="round"/>
<path d="M443 401 Q495 426 546 439" stroke="#268cb5" stroke-width="9" fill="none" stroke-linecap="round"/><path d="M546 439 l-27 1 18 -18" stroke="#268cb5" stroke-width="8" fill="none"/>
<path d="M979 389 Q1043 434 1136 468" stroke="#9e603c" stroke-width="16" fill="none" stroke-linecap="round"/><path d="M1136 468 l-29 0 17 -24" stroke="#9e603c" stroke-width="9" fill="none"/><g fill="#a77a58"><circle cx="1064" cy="418" r="9"/><circle cx="1085" cy="436" r="8"/><circle cx="1105" cy="449" r="7"/></g>
<text x="306" y="513" font-family="Arial,sans-serif" font-size="20" fill="#216b4e" font-weight="700" text-anchor="middle">Minore asportazione di terra</text><text x="900" y="513" font-family="Arial,sans-serif" font-size="20" fill="#a05033" font-weight="700" text-anchor="middle">Più erosione superficiale</text>
<text x="602" y="590" font-family="Arial,sans-serif" font-size="19" fill="#3e5c6e" font-weight="400" text-anchor="middle">Il modello non significa che la vegetazione impedisca ogni frana.</text></svg>