<svg xmlns="http://www.w3.org/2000/svg" viewBox="0 0 1200 800" role="img" aria-labelledby="title desc">
  <title id="title">Camion della Protezione Civile da colorare</title>
  <desc id="desc">Disegno lineare in bianco e nero di un camion attrezzato della Protezione Civile con volontari, tende e materiali di emergenza.</desc>
  <defs><style>.line{fill:none;stroke:#111;stroke-width:7;stroke-linecap:round;stroke-linejoin:round}.thin{fill:none;stroke:#111;stroke-width:4;stroke-linecap:round;stroke-linejoin:round}.txt{font-family:Arial,Helvetica,sans-serif;font-weight:700;fill:#111}.soft{fill:#fff;stroke:#111;stroke-width:6;stroke-linejoin:round}.dash{fill:none;stroke:#111;stroke-width:4;stroke-linecap:round;stroke-dasharray:10 12}</style></defs>
  <rect x="35" y="35" width="1130" height="730" rx="28" class="thin"/>
  <path d="M70 645 C210 610 310 620 445 645 C600 675 735 625 890 645 C1015 663 1090 648 1130 635" class="thin"/>
  <g aria-label="tende sullo sfondo"><path d="M120 590 L220 450 L330 590 Z" class="thin"/><path d="M220 450 L220 590" class="thin"/><path d="M175 590 C190 535 205 497 220 450 C238 500 255 540 270 590" class="thin"/><path d="M900 585 L990 465 L1085 585 Z" class="thin"/><path d="M990 465 L990 585" class="thin"/><text x="990" y="615" text-anchor="middle" font-size="27" class="txt">TENDE</text></g>
  <g aria-label="sole e nuvole"><circle cx="1015" cy="130" r="45" class="thin"/><path d="M1015 55 V25 M1015 235 V205 M940 130 H910 M1120 130 H1090 M960 75 L938 52 M1070 185 L1092 208 M1070 75 L1092 52 M960 185 L938 208" class="thin"/><path d="M140 155 C165 115 220 112 247 147 C276 130 326 145 337 185 C378 188 400 217 392 250 H118 C92 250 80 224 92 202 C99 188 116 177 140 178 C137 170 137 161 140 155 Z" class="thin"/></g>
  <g aria-label="camion protezione civile"><rect x="250" y="360" width="560" height="190" rx="18" class="soft"/><path d="M810 410 H940 L1035 495 V550 H810 Z" class="soft"/><path d="M845 430 H925 L980 485 H845 Z" class="thin"/><path d="M285 395 H770" class="thin"/><path d="M300 440 H765" class="dash"/><rect x="315" y="410" width="140" height="78" rx="8" class="thin"/><rect x="485" y="410" width="140" height="78" rx="8" class="thin"/><rect x="655" y="410" width="85" height="78" rx="8" class="thin"/><path d="M260 550 H1050" class="line"/><circle cx="375" cy="590" r="72" class="soft"/><circle cx="375" cy="590" r="35" class="thin"/><circle cx="885" cy="590" r="72" class="soft"/><circle cx="885" cy="590" r="35" class="thin"/><path d="M307 590 H120 M956 590 H1090" class="thin"/><text x="530" y="530" text-anchor="middle" font-size="42" class="txt">PROTEZIONE CIVILE</text><text x="915" y="535" text-anchor="middle" font-size="30" class="txt">112</text><path d="M955 520 H1015" class="thin"/><rect x="530" y="300" width="210" height="55" rx="8" class="soft"/><text x="635" y="338" text-anchor="middle" font-size="29" class="txt">MATERIALI</text><path d="M505 360 L540 302 M755 360 L720 302" class="thin"/><path d="M250 355 L210 320 M810 355 L860 320" class="thin"/><path d="M210 320 H860" class="thin"/></g>
  <g aria-label="volontario con radio"><circle cx="160" cy="395" r="34" class="soft"/><path d="M125 363 Q160 325 195 363" class="thin"/><path d="M130 440 H190 L208 540 H112 Z" class="soft"/><path d="M112 468 L78 505 M208 468 L243 505" class="line"/><path d="M137 540 L125 622 M183 540 L196 622" class="line"/><path d="M145 475 H175" class="thin"/><text x="160" y="518" text-anchor="middle" font-size="23" class="txt">PC</text><rect x="55" y="475" width="32" height="48" rx="6" class="soft"/><path d="M70 475 V440" class="thin"/><text x="160" y="660" text-anchor="middle" font-size="25" class="txt">VOLONTARIO</text></g>
  <g aria-label="scatole aiuti"><rect x="660" y="620" width="85" height="70" class="thin"/><path d="M660 643 H745 M703 620 V690" class="thin"/><rect x="750" y="612" width="95" height="78" class="thin"/><path d="M750 638 H845 M798 612 V690" class="thin"/><text x="754" y="725" text-anchor="middle" font-size="25" class="txt">AIUTI</text></g>
</svg>
